<svg viewBox="0 0 24 24" xmlns="http://www.w3.org/2000/svg" xmlns:xlink="http://www.w3.org/1999/xlink" width="24.000000" height="24.000000" fill="none">
	<rect id="appointment-02-stroke-rounded 1" width="24.000000" height="24.000000" x="0.000000" y="0.000000" fill="rgb(255,255,255)" fill-opacity="0" />
	<path id="Vector" d="M16 2L16 6M8 2L8 6" fill-rule="nonzero" stroke="rgb(59,163,52)" stroke-linecap="round" stroke-linejoin="round" stroke-width="2" />
	<path id="Vector" d="M16 2L16 6M8 2L8 6" fill-rule="nonzero" stroke="rgb(0,0,0)" stroke-opacity="0.200000003" stroke-linecap="round" stroke-linejoin="round" stroke-width="2" />
	<path id="Vector" d="M11 4C7.22876 4 5.34315 4 4.17157 5.17157C3 6.34315 3 8.22876 3 12L3 14C3 17.7712 3 19.6569 4.17157 20.8284C5.34315 22 7.22876 22 11 22L13 22C16.7712 22 18.6569 22 19.8284 20.8284C21 19.6569 21 17.7712 21 14L21 12C21 8.22876 21 6.34315 19.8284 5.17157C18.6569 4 16.7712 4 13 4L11 4Z" fill-rule="nonzero" stroke="rgb(59,163,52)" stroke-linecap="round" stroke-linejoin="round" stroke-width="2" />
	<path id="Vector" d="M11 4C7.22876 4 5.34315 4 4.17157 5.17157C3 6.34315 3 8.22876 3 12L3 14C3 17.7712 3 19.6569 4.17157 20.8284C5.34315 22 7.22876 22 11 22L13 22C16.7712 22 18.6569 22 19.8284 20.8284C21 19.6569 21 17.7712 21 14L21 12C21 8.22876 21 6.34315 19.8284 5.17157C18.6569 4 16.7712 4 13 4L11 4Z" fill-rule="nonzero" stroke="rgb(0,0,0)" stroke-opacity="0.200000003" stroke-linecap="round" stroke-linejoin="round" stroke-width="2" />
	<path id="Vector" d="M3 10L21 10" stroke="rgb(59,163,52)" stroke-linecap="round" stroke-linejoin="round" stroke-width="2" />
	<path id="Vector" d="M3 10L21 10" stroke="rgb(0,0,0)" stroke-opacity="0.200000003" stroke-linecap="round" stroke-linejoin="round" stroke-width="2" />
	<path id="Vector" d="M9 16.5C9 16.5 10.5 17 11 18.5C11 18.5 13.1765 14.5 16 13.5" fill-rule="nonzero" stroke="rgb(59,163,52)" stroke-linecap="round" stroke-linejoin="round" stroke-width="2" />
	<path id="Vector" d="M9 16.5C9 16.5 10.5 17 11 18.5C11 18.5 13.1765 14.5 16 13.5" fill-rule="nonzero" stroke="rgb(0,0,0)" stroke-opacity="0.200000003" stroke-linecap="round" stroke-linejoin="round" stroke-width="2" />
</svg>
