<svg viewBox="0 0 24 24" xmlns="http://www.w3.org/2000/svg" xmlns:xlink="http://www.w3.org/1999/xlink" width="24.000000" height="24.000000" fill="none">
	<rect id="gps-01-solid-standard 1" width="24.000000" height="24.000000" x="0.000000" y="0.000000" fill="rgb(255,255,255)" fill-opacity="0" />
	<path id="Vector" d="M12 1C12.5523 1 13 1.44772 13 2L13 4C13 4.55228 12.5523 5 12 5C11.4477 5 11 4.55228 11 4L11 2C11 1.44772 11.4477 1 12 1ZM1 12C1 11.4477 1.44772 11 2 11L4 11C4.55228 11 5 11.4477 5 12C5 12.5523 4.55228 13 4 13L2 13C1.44772 13 1 12.5523 1 12ZM19 12C19 11.4477 19.4477 11 20 11L22 11C22.5523 11 23 11.4477 23 12C23 12.5523 22.5523 13 22 13L20 13C19.4477 13 19 12.5523 19 12ZM12 19C12.5523 19 13 19.4477 13 20L13 22C13 22.5523 12.5523 23 12 23C11.4477 23 11 22.5523 11 22L11 20C11 19.4477 11.4477 19 12 19Z" fill="rgb(59,163,52)" fill-rule="evenodd" />
	<path id="Vector" d="M12 1C12.5523 1 13 1.44772 13 2L13 4C13 4.55228 12.5523 5 12 5C11.4477 5 11 4.55228 11 4L11 2C11 1.44772 11.4477 1 12 1ZM1 12C1 11.4477 1.44772 11 2 11L4 11C4.55228 11 5 11.4477 5 12C5 12.5523 4.55228 13 4 13L2 13C1.44772 13 1 12.5523 1 12ZM19 12C19 11.4477 19.4477 11 20 11L22 11C22.5523 11 23 11.4477 23 12C23 12.5523 22.5523 13 22 13L20 13C19.4477 13 19 12.5523 19 12ZM12 19C12.5523 19 13 19.4477 13 20L13 22C13 22.5523 12.5523 23 12 23C11.4477 23 11 22.5523 11 22L11 20C11 19.4477 11.4477 19 12 19Z" fill="rgb(0,0,0)" fill-opacity="0.200000003" fill-rule="evenodd" />
	<path id="Vector" d="M12 5C8.13401 5 5 8.13401 5 12C5 15.866 8.13401 19 12 19C15.866 19 19 15.866 19 12C19 8.13401 15.866 5 12 5ZM3 12C3 7.02944 7.02944 3 12 3C16.9706 3 21 7.02944 21 12C21 16.9706 16.9706 21 12 21C7.02944 21 3 16.9706 3 12Z" fill="rgb(59,163,52)" fill-rule="evenodd" />
	<path id="Vector" d="M12 5C8.13401 5 5 8.13401 5 12C5 15.866 8.13401 19 12 19C15.866 19 19 15.866 19 12C19 8.13401 15.866 5 12 5ZM3 12C3 7.02944 7.02944 3 12 3C16.9706 3 21 7.02944 21 12C21 16.9706 16.9706 21 12 21C7.02944 21 3 16.9706 3 12Z" fill="rgb(0,0,0)" fill-opacity="0.200000003" fill-rule="evenodd" />
	<path id="Vector" d="M8.25 12C8.25 9.92893 9.92893 8.25 12 8.25C14.0711 8.25 15.75 9.92893 15.75 12C15.75 14.0711 14.0711 15.75 12 15.75C9.92893 15.75 8.25 14.0711 8.25 12Z" fill="rgb(59,163,52)" fill-rule="evenodd" />
	<path id="Vector" d="M8.25 12C8.25 9.92893 9.92893 8.25 12 8.25C14.0711 8.25 15.75 9.92893 15.75 12C15.75 14.0711 14.0711 15.75 12 15.75C9.92893 15.75 8.25 14.0711 8.25 12Z" fill="rgb(0,0,0)" fill-opacity="0.200000003" fill-rule="evenodd" />
</svg>
