<svg viewBox="0 0 24 24" xmlns="http://www.w3.org/2000/svg" xmlns:xlink="http://www.w3.org/1999/xlink" width="24.000000" height="24.000000" fill="none">
	<rect id="shield-01-stroke-standard 1" width="24.000000" height="24.000000" x="0.000000" y="0.000000" fill="rgb(255,255,255)" fill-opacity="0" />
	<path id="Vector" d="M21 6.12325C21 5.34825 20.4145 4.70502 19.6551 4.57302C16.595 4.04108 14.0546 2.85772 12.8152 2.20154C12.3077 1.93282 11.6923 1.93282 11.1848 2.20154C9.94542 2.85772 7.40502 4.04108 4.34489 4.57302C3.58552 4.70502 3 5.34825 3 6.12325L3 11.0511C3 17.4795 9.53762 20.9859 11.4689 21.8815C11.8097 22.0395 12.1903 22.0395 12.5311 21.8815C14.4624 20.9859 21 17.4795 21 11.0511L21 6.12325Z" fill-rule="nonzero" stroke="rgb(59,163,52)" stroke-linecap="round" stroke-width="2" />
	<path id="Vector" d="M21 6.12325C21 5.34825 20.4145 4.70502 19.6551 4.57302C16.595 4.04108 14.0546 2.85772 12.8152 2.20154C12.3077 1.93282 11.6923 1.93282 11.1848 2.20154C9.94542 2.85772 7.40502 4.04108 4.34489 4.57302C3.58552 4.70502 3 5.34825 3 6.12325L3 11.0511C3 17.4795 9.53762 20.9859 11.4689 21.8815C11.8097 22.0395 12.1903 22.0395 12.5311 21.8815C14.4624 20.9859 21 17.4795 21 11.0511L21 6.12325Z" fill-rule="nonzero" stroke="rgb(0,0,0)" stroke-opacity="0.200000003" stroke-linecap="round" stroke-width="2" />
</svg>
