<svg viewBox="0 0 26.6924 32.7593" xmlns="http://www.w3.org/2000/svg" xmlns:xlink="http://www.w3.org/1999/xlink" width="26.692383" height="32.759277" fill="none" customFrame="#000000">
	<rect id="Apple" width="26.692623" height="32.759129" x="0.000000" y="0.000000" />
	<path id="&lt;Path>" d="M22.2943 17.4215C22.3106 16.1659 22.6446 14.9347 23.2654 13.8426C23.8861 12.7505 24.7735 11.8329 25.8449 11.1753C25.1643 10.2047 24.2664 9.40598 23.2225 8.84251C22.1787 8.27905 21.0176 7.96638 19.8316 7.92932C17.3015 7.66415 14.8488 9.44096 13.5595 9.44096C12.2453 9.44096 10.2603 7.95565 8.12278 7.99956C6.74017 8.04416 5.3927 8.44561 4.21167 9.16478C3.03064 9.88396 2.05633 10.8963 1.38366 12.1033C-1.53013 17.1405 0.643299 24.5436 3.43452 28.6154C4.83103 30.6092 6.46314 32.8363 8.59875 32.7574C10.6886 32.6708 11.4691 31.4268 13.9916 31.4268C16.4908 31.4268 17.2231 32.7574 19.402 32.7071C21.6445 32.6708 23.0574 30.7045 24.4049 28.6918C25.4083 27.2711 26.1804 25.701 26.6926 24.0395C25.3898 23.4893 24.278 22.5684 23.4959 21.3915C22.7137 20.2146 22.2959 18.8339 22.2943 17.4215Z" fill="rgb(255,255,255)" fill-rule="nonzero" />
	<path id="&lt;Path>" d="M18.1785 5.25119C19.4012 3.78562 20.0036 1.90188 19.8577 0C17.9897 0.195898 16.2642 1.08732 15.025 2.49666C14.4191 3.18516 13.9551 3.98614 13.6594 4.85382C13.3637 5.72149 13.2422 6.63885 13.3019 7.55344C14.2362 7.56304 15.1605 7.36083 16.0052 6.96205C16.8499 6.56326 17.593 5.97829 18.1785 5.25119Z" fill="rgb(255,255,255)" fill-rule="nonzero" />
</svg>
