<svg viewBox="0 0 140.567 151.936" xmlns="http://www.w3.org/2000/svg" xmlns:xlink="http://www.w3.org/1999/xlink" width="140.567383" height="151.935913" fill="none" customFrame="#000000">
	<defs>
		<linearGradient id="paint_linear_0" x1="64.7249374" x2="64.7249374" y1="3.72511792e-15" y2="134.211517" gradientUnits="userSpaceOnUse">
			<stop stop-color="rgb(52,168,83)" offset="0" stop-opacity="1" />
			<stop stop-color="rgb(52,168,83)" offset="1" stop-opacity="0" />
		</linearGradient>
	</defs>
	<path id="Vector" d="M126.922 127.979L107.89 127.979C107.947 125.948 108.261 122.718 109.384 118.414C111.383 110.757 116.36 98.3801 128.723 82.8964C129.096 82.4292 129.34 81.8289 129.421 81.1809C129.501 80.5329 129.413 79.8702 129.17 79.2871C128.927 78.704 128.542 78.2301 128.067 77.933C127.593 77.6358 127.055 77.5304 126.53 77.6319C126.173 77.7008 117.682 79.3994 108.667 86.3201C102.7 90.9016 95.7133 98.4683 91.4665 110.435C91.7464 109.207 92.0482 107.987 92.3717 106.776C96.1126 92.7763 105.276 70.1964 127.688 42.1277C128.061 41.6604 128.305 41.0601 128.385 40.4122C128.466 39.7643 128.378 39.1016 128.135 38.5185C127.893 37.9353 127.507 37.4613 127.033 37.1641C126.559 36.8669 126.021 36.7616 125.495 36.8632C110.064 39.8423 95.6711 48.1647 83.8743 60.9304C81.6123 63.3773 79.4616 65.9762 77.4321 68.7153C76.1268 48.8555 74.7106 33.1655 73.2151 22.0099C72.3441 15.5117 71.4329 10.4972 70.5068 7.1049C69.9263 4.97873 68.5671 0 65.3632 0C62.3952 0 60.9723 4.07067 59.9718 8.05253C58.9805 11.9976 58.0063 17.8358 57.0759 25.405C55.474 38.4384 53.9752 56.6637 52.6119 79.6581C47.3925 71.346 40.8477 64.1363 33.1108 58.1969C18.3662 46.8777 4.53655 44.1105 3.95529 43.9983C3.42993 43.897 2.89203 44.0025 2.41808 44.2997C1.94414 44.5969 1.55829 45.0707 1.3154 45.6537C1.07251 46.2367 0.984949 46.8993 1.06517 47.5472C1.14539 48.1951 1.38931 48.7953 1.76223 49.2625C16.189 67.3304 24.6493 82.9219 29.6096 95.0654C26.7073 91.3702 23.6294 88.5046 20.7832 86.3198C11.7683 79.3988 3.2777 77.7005 2.92071 77.6316C2.39527 77.5301 1.85725 77.6355 1.3832 77.9327C0.909143 78.2298 0.52319 78.7037 0.280247 79.2868C0.037304 79.8699 -0.0502563 80.5326 0.0300225 81.1806C0.110301 81.8286 0.354331 82.4289 0.727395 82.8961C12.8552 98.0847 17.8512 110.269 19.9064 117.815C21.1511 122.384 21.4917 125.835 21.5518 127.979L10.002 127.979C8.60587 127.979 7.47369 129.374 7.47369 131.095C7.47369 132.816 8.60587 134.211 10.002 134.211L126.922 134.212C128.318 134.212 129.45 132.816 129.45 131.095C129.45 129.374 128.318 127.979 126.922 127.979ZM61.6721 29.7514C63.1944 16.3668 64.5289 10.4454 65.3625 7.84374C66.1182 10.2021 67.2883 15.2911 68.6331 26.1949C70.1109 38.176 71.5113 54.7859 72.7965 75.5715C68.2222 83.0023 64.5764 91.1512 61.9573 99.8085C60.6269 95.7122 59.038 91.7508 57.2054 87.9605C58.5618 63.4751 60.0641 43.8921 61.6721 29.7514ZM84.3605 127.979L79.6606 127.979C79.4171 117.207 81.801 105.096 86.7576 91.9554C87.3461 90.3949 86.7967 88.5414 85.5306 87.8159C84.2636 87.0901 82.7605 87.7676 82.1719 89.3279C76.9085 103.283 74.3663 116.275 74.6027 127.979L67.2051 127.979C67.1308 127.002 67.0507 126.025 66.9647 125.049C66.5005 119.774 65.7301 114.691 64.6614 109.813C71.4848 78.5883 92.5304 53.5927 118.446 45.0606C110.672 55.4921 104.118 65.8823 98.9094 76.0414C93.7334 86.136 89.8606 96.038 87.3982 105.472C84.6323 116.071 84.2603 123.757 84.3605 127.979ZM42.041 127.979C42.1123 124.011 41.729 116.989 39.227 107.403C34.6821 89.9888 25.3345 71.6373 11.3979 52.7442C16.5342 54.7495 23.4999 58.1336 30.5916 63.6063C39.7992 70.7118 47.039 79.4854 52.2749 89.8551C52.3803 90.1905 52.532 90.5009 52.7232 90.7725C55.6641 96.784 57.9436 103.321 59.5542 110.371C59.5842 110.579 59.6313 110.78 59.6937 110.973C60.7359 115.666 61.486 120.582 61.9381 125.721C62.0049 126.479 62.0665 127.231 62.1252 127.979L42.041 127.979ZM89.8855 78.1847C91.026 79.1143 91.3562 80.9874 90.6463 82.4127C90.2061 83.5121 89.3085 84.1519 88.3753 84.1519C87.9929 84.1518 87.6156 84.0443 87.272 83.8375C86.0164 83.0846 85.4931 81.2211 86.1039 79.6736C86.1863 79.4639 86.2792 79.2606 86.382 79.065C87.1519 77.6291 88.7207 77.2355 89.8855 78.1847ZM26.6102 127.979C26.4649 121.477 24.3158 106.874 10.5618 86.9035C12.8704 88.0503 15.4685 89.5834 18.1093 91.6105C28.9317 99.9189 35.1279 112.155 36.5258 127.979L26.6102 127.979ZM92.9239 127.979C94.3152 112.233 100.46 100.036 111.188 91.7277C113.87 89.6507 116.524 88.0826 118.881 86.9131C105.134 106.879 102.985 121.477 102.84 127.979L92.9239 127.979ZM2.52832 127.979L2.64841 127.979C4.04455 127.979 5.17673 129.374 5.17673 131.095C5.17673 132.816 4.0448 134.211 2.64841 134.211L2.52832 134.211C1.13218 134.211 0 132.816 0 131.095C0 129.374 1.13218 127.979 2.52832 127.979Z" fill="url(#paint_linear_0)" fill-opacity="0.200000003" fill-rule="evenodd" transform="matrix(0.989957,-0.141369,0.0925239,0.99571,0,18.3002)" />
</svg>
